<svg width="160" height="50" viewBox="0 0 160 50" fill="none" xmlns="http://www.w3.org/2000/svg">
<g clip-path="url(#clip0)">
<path fill-rule="evenodd" clip-rule="evenodd" d="M12.8097 44.3366H19.2146C21.0669 44.3366 21.623 44.3098 22.6549 44.1494V47.5177C21.7024 47.4108 21.014 47.3841 19.2672 47.3841H3.38769C1.64091 47.3841 0.953095 47.4108 0 47.5177V44.1494C1.03219 44.3098 1.58798 44.3366 3.44093 44.3366H9.42201V33.3494H5.37266C3.62589 33.3494 2.93776 33.3762 1.98497 33.4834V30.1418C2.991 30.3022 3.62589 30.329 5.4256 30.329H17.2028C19.0025 30.329 19.6377 30.3022 20.6434 30.1418V33.4834C19.6906 33.3762 19.029 33.3494 17.2557 33.3494H12.8097V44.3366Z" fill="#111215"/>
<path fill-rule="evenodd" clip-rule="evenodd" d="M63.4308 37.4114H69.8356C71.688 37.4114 72.2441 37.3861 73.276 37.2341V40.4256C72.3235 40.3243 71.6351 40.299 69.8883 40.299H54.0088C52.262 40.299 51.5742 40.3243 50.6211 40.4256V37.2341C51.6533 37.3861 52.2091 37.4114 54.062 37.4114H60.0431H63.4308Z" fill="#111215"/>
<mask id="mask0" mask-type="alpha" maskUnits="userSpaceOnUse" x="25" y="28" width="24" height="22">
<path d="M25.6328 28.2432H48.2543V50H25.6328V28.2432Z" fill="white"/>
</mask>
<g mask="url(#mask0)">
<path fill-rule="evenodd" clip-rule="evenodd" d="M48.2543 30.2671C47.8802 30.7198 47.8802 30.7465 47.185 32.1312C46.2491 34.1019 44.6978 36.0992 43.0667 37.484C41.9974 38.4158 41.115 39.0017 39.8582 39.6941C39.056 38.5756 38.6549 38.1761 37.4516 37.2707C39.2432 36.4717 40.2593 35.8595 41.3556 34.821C42.452 33.809 43.2809 32.7171 43.8956 31.4388H29.8577C27.9856 31.4388 27.3174 31.4655 26.2211 31.5986V28.2698C27.2369 28.4296 28.0658 28.4828 29.9112 28.4828H43.8689C45.4736 28.4828 45.7143 28.4562 46.4627 28.2432L48.2543 30.2671ZM37.3981 33.6226C37.3179 34.1286 37.3179 34.1552 37.2912 35.7797C37.1842 40.3335 36.4622 42.8901 34.6442 45.2066C33.0395 47.2572 31.0875 48.6154 27.7453 50.0001C27.05 48.5621 26.7024 48.0827 25.6328 46.9642C27.7988 46.3251 29.0021 45.7392 30.3123 44.7006C33.0395 42.5439 33.8952 40.2533 33.8952 35.2204C33.8952 34.4215 33.8684 34.1818 33.7618 33.6226H37.3981Z" fill="#111215"/>
</g>
<path fill-rule="evenodd" clip-rule="evenodd" d="M71.7834 23.4042C69.5755 20.6894 66.5168 17.7081 63.6174 15.4984C60.6116 18.8524 57.5526 21.1948 53.4827 23.1915C52.7382 21.807 52.419 21.3811 51.3281 20.2369C53.3763 19.4383 54.6531 18.7193 56.6482 17.3088C60.6648 14.4869 63.8568 10.6275 65.5858 6.47498L65.8781 5.7829C65.4525 5.80951 65.4525 5.80951 57.0738 5.94261C55.797 5.96923 55.0788 6.02246 54.1743 6.15556L54.0683 2.74867C54.8127 2.88146 55.3185 2.90808 56.4088 2.90808H57.0472L66.4104 2.77529C67.8997 2.74867 68.1128 2.72175 68.7775 2.48218L70.5332 4.29225C70.1877 4.69153 69.9745 5.06419 69.6819 5.72966C68.4583 8.57786 67.1549 10.8937 65.5326 13.0764C67.2084 14.1941 68.6448 15.3121 70.4533 16.9361C71.1187 17.5214 71.1187 17.5214 74.337 20.6361L71.7834 23.4042Z" fill="#111215"/>
<path fill-rule="evenodd" clip-rule="evenodd" d="M94.1599 6.17469C93.9202 6.67862 93.8932 6.83744 93.7599 7.63312C93.3066 10.6835 92.9067 12.1688 92.0801 14.0519C90.7735 17.102 88.6404 19.4622 85.4944 21.3718C83.8945 22.3531 82.508 22.9631 80.1882 23.7588C79.575 22.4062 79.255 21.9287 78.0551 20.6026C80.5882 19.9929 82.0547 19.4356 83.7346 18.4016C87.6008 16.0142 89.627 12.6459 90.1339 7.76604H77.1219V11.1874C77.1219 12.0096 77.1486 12.7254 77.2019 13.3092H73.6289C73.7089 12.6459 73.7622 11.8237 73.7622 11.081V7.23528C73.7622 6.12165 73.7356 5.43206 73.6556 4.71626C74.5888 4.82204 75.0688 4.84857 76.5353 4.84857H81.7614L90.0003 4.82204C91.9734 4.82204 91.9734 4.82204 92.6134 4.60986L94.1599 6.17469Z" fill="#111215"/>
<path fill-rule="evenodd" clip-rule="evenodd" d="M105.813 6.02832C107.22 8.689 107.724 9.87107 108.388 12.209L105.441 13.1495C104.937 11.1072 104.14 9.03834 103.025 6.83449L105.813 6.02832ZM115.397 7.31851C115.238 7.72128 115.184 7.85595 115.025 8.689C114.256 12.3433 113.061 15.2993 111.362 17.6372C109.397 20.3513 107.193 22.098 103.264 24.1134C102.574 22.931 102.256 22.528 101.14 21.4527C102.999 20.7275 104.087 20.136 105.654 18.9808C108.76 16.6967 110.539 13.9557 111.68 9.65609C112.025 8.33934 112.158 7.39912 112.158 6.56608L115.397 7.31851ZM100.158 7.13009C101.273 9.19926 101.804 10.4891 102.76 13.4988L99.76 14.4662C99.0694 11.7521 98.5388 10.3279 97.3438 7.96313L100.158 7.13009Z" fill="#111215"/>
<path fill-rule="evenodd" clip-rule="evenodd" d="M134.646 3.06312C134.646 4.02232 135.419 4.8214 136.378 4.8214C137.364 4.8214 138.136 4.02232 138.136 3.06312C138.136 2.10423 137.364 1.33179 136.378 1.33179C135.419 1.33179 134.646 2.10423 134.646 3.06312ZM131.743 3.14334C132.542 3.14334 132.862 3.1167 133.314 3.08976C133.341 1.35843 134.673 0 136.378 0C138.083 0 139.468 1.38506 139.468 3.06312C139.468 4.76782 138.083 6.15319 136.378 6.15319C136.218 6.15319 136.059 6.12655 135.872 6.09961C133.714 14.8095 128.999 20.2432 120.581 23.7589C119.888 22.3741 119.435 21.7612 118.236 20.5892C125.616 18.2985 130.437 13.3446 132.142 6.25942H119.462C117.49 6.25942 116.984 6.28606 116.105 6.41924V2.95658C117.064 3.1167 117.704 3.14334 119.515 3.14334H131.743Z" fill="#111215"/>
<path fill-rule="evenodd" clip-rule="evenodd" d="M24.0703 22.3405H27.6101V2.12769H24.0703V22.3405Z" fill="#111215"/>
<path fill-rule="evenodd" clip-rule="evenodd" d="M45.2732 22.3405L40.7509 15.5467H36.2011V22.3405H32.5664V2.12769H41.7857C46.5423 2.12769 49.4682 4.90942 49.4682 8.83826C49.4682 12.1638 47.4287 14.171 44.533 14.9453L49.5576 22.3405H45.2732ZM41.4902 5.33912H36.2011V12.4215H41.5186C44.1198 12.4215 45.7742 10.9007 45.7742 8.83671C45.7742 6.62883 44.1791 5.33912 41.4902 5.33912Z" fill="#111215"/>
<path fill-rule="evenodd" clip-rule="evenodd" d="M0 22.3405H3.80908C3.80908 22.3405 6.54501 16.5099 14.5713 17.1821L16.7399 22.3405H20.531L12.1385 2.12769H8.59572L0 22.3405ZM10.4103 6.34224L13.3464 14.0026C13.3464 14.0026 10.1201 13.8817 6.89414 15.4315L10.4103 6.34224Z" fill="#111215"/>
<path fill-rule="evenodd" clip-rule="evenodd" d="M86.4846 37.5312C82.5466 36.6111 81.5338 35.7341 81.5338 34.1526C81.5338 32.8006 82.6059 31.7279 84.7221 31.7279C86.6037 31.7279 88.6883 32.642 90.5404 33.9938L92.4799 31.3191C90.3931 29.6797 87.6205 28.7234 84.6226 28.7234C80.5373 28.7234 77.9189 30.9602 77.9189 34.4688C77.9189 38.2078 80.4595 39.6593 84.8384 40.6948C88.6594 41.5579 89.4816 42.3342 89.4816 43.8006C89.4816 45.3539 88.4539 46.5108 86.2214 46.5108C83.6643 46.5108 81.3118 45.4115 79.3431 43.7436L77.168 46.2739C79.6367 48.4311 82.9884 49.6454 86.1321 49.6454C90.4526 49.6454 93.0972 47.2522 93.0972 43.4562C93.0972 43.0038 93.0559 42.5848 92.9747 42.1961C92.4511 39.6905 90.2502 38.428 86.4846 37.5312Z" fill="#111215"/>
<path fill-rule="evenodd" clip-rule="evenodd" d="M120.796 29.0781L115.87 43.9582L110.796 29.0787H107.728L102.654 43.9582L97.7279 29.0781H93.8047L101.002 49.2909H104.129L109.203 34.8693L114.277 49.2909H117.403L124.601 29.0781H120.796Z" fill="#111215"/>
<path fill-rule="evenodd" clip-rule="evenodd" d="M151.821 39.3751H146.652V32.2894H151.821C154.547 32.2894 156.295 32.955 156.295 35.7375C156.295 38.3496 154.577 39.3751 151.821 39.3751ZM152.118 29.0781H143.008V49.2909H146.652V42.5577H151.703C156.586 42.5577 159.999 40.1198 159.999 35.5899C159.999 31.4898 156.947 29.0781 152.118 29.0781Z" fill="#111215"/>
<path fill-rule="evenodd" clip-rule="evenodd" d="M128.247 40.9528L131.183 33.2927L134.699 42.3819C131.473 40.8321 128.247 40.9528 128.247 40.9528ZM129.454 29.0781L121.062 49.2909H124.853L127.022 44.1326C135.049 43.4605 137.784 49.2909 137.784 49.2909H141.593L132.997 29.0781H129.454Z" fill="#111215"/>
</g>
<defs>
<clipPath id="clip0">
<rect width="160" height="50" fill="white"/>
</clipPath>
</defs>
</svg>
