<svg width="159" height="50" viewBox="0 0 159 50" fill="none"
  xmlns="http://www.w3.org/2000/svg">
  <path fill-rule="evenodd" clip-rule="evenodd" d="M12.7296 43.8767H19.0945C20.9352 43.8767 21.4878 43.8502 22.5133 43.6915V47.0249C21.5667 46.919 20.8826 46.8926 19.1468 46.8926H3.36652C1.63066 46.8926 0.947139 46.919 0 47.0249V43.6915C1.02574 43.8502 1.57805 43.8767 3.41942 43.8767H9.36312V33.0036H5.33909C3.60322 33.0036 2.9194 33.03 1.97257 33.1361V29.8292C2.97231 29.988 3.60322 30.0144 5.39169 30.0144H17.0953C18.8837 30.0144 19.515 29.988 20.5144 29.8292V33.1361C19.5676 33.03 18.91 33.0036 17.1479 33.0036H12.7296V43.8767Z" fill="white"/>
  <path fill-rule="evenodd" clip-rule="evenodd" d="M63.0343 37.0232H69.3992C71.2399 37.0232 71.7925 36.9982 72.818 36.8478V40.0062C71.8714 39.9059 71.1873 39.8808 69.4514 39.8808H53.6712C51.9353 39.8808 51.2518 39.9059 50.3047 40.0062V36.8478C51.3304 36.9982 51.8827 37.0232 53.7241 37.0232H59.6678H63.0343Z" fill="white"/>
  <mask id="mask0" mask-type="alpha" maskUnits="userSpaceOnUse" x="25" y="27" width="23" height="23">
    <path d="M25.4727 27.9502H47.9527V49.4814H25.4727V27.9502Z" fill="white"/>
  </mask>
  <g mask="url(#mask0)">
    <path fill-rule="evenodd" clip-rule="evenodd" d="M47.9527 29.9531C47.581 30.4012 47.581 30.4275 46.8901 31.7979C45.96 33.7482 44.4185 35.7248 42.7976 37.0952C41.735 38.0173 40.8581 38.5971 39.6091 39.2823C38.8119 38.1754 38.4133 37.7801 37.2176 36.8841C38.998 36.0934 40.0077 35.4876 41.0972 34.4597C42.1867 33.4583 43.0105 32.3777 43.6213 31.1127H29.6712C27.8108 31.1127 27.1467 31.1391 26.0573 31.2709V27.9765C27.0667 28.1347 27.8905 28.1874 29.7243 28.1874H43.5948C45.1894 28.1874 45.4286 28.161 46.1723 27.9502L47.9527 29.9531ZM37.1644 33.2738C37.0847 33.7745 37.0847 33.8009 37.0581 35.4085C36.9518 39.9151 36.2344 42.4451 34.4277 44.7377C32.833 46.767 30.8932 48.1111 27.5719 49.4815C26.881 48.0583 26.5356 47.584 25.4727 46.4771C27.6251 45.8446 28.8208 45.2648 30.1229 44.2369C32.833 42.1025 33.6834 39.8357 33.6834 34.8551C33.6834 34.0644 33.6568 33.8272 33.5508 33.2738H37.1644Z" fill="white"/>
  </g>
  <path fill-rule="evenodd" clip-rule="evenodd" d="M71.3352 23.1615C69.1412 20.4749 66.1016 17.5245 63.2203 15.3378C60.2333 18.6569 57.1934 20.9751 53.149 22.9511C52.4091 21.5809 52.0919 21.1595 51.0078 20.027C53.0432 19.2368 54.3121 18.5252 56.2946 17.1294C60.2861 14.3367 63.4582 10.5174 65.1764 6.40793L65.4669 5.72302C65.0439 5.74936 65.0439 5.74936 56.7175 5.88108C55.4487 5.90742 54.735 5.96011 53.8362 6.09182L53.7308 2.72028C54.4707 2.85168 54.9732 2.87802 56.0567 2.87802H56.6911L65.9959 2.74662C67.4758 2.72027 67.6876 2.69363 68.3482 2.45654L70.0928 4.24784C69.7495 4.64298 69.5377 5.01177 69.2469 5.67034C68.031 8.48899 66.7357 10.7808 65.1235 12.9409C66.7889 14.047 68.2163 15.1534 70.0135 16.7606C70.6747 17.3398 70.6747 17.3398 73.8729 20.4222L71.3352 23.1615Z" fill="white"/>
  <path fill-rule="evenodd" clip-rule="evenodd" d="M93.5706 6.11073C93.3324 6.60943 93.3056 6.76661 93.1732 7.55403C92.7227 10.5728 92.3252 12.0426 91.5038 13.9062C90.2054 16.9246 88.0857 19.2604 84.9593 21.1502C83.3694 22.1213 81.9916 22.725 79.6863 23.5124C79.0769 22.1738 78.7589 21.7014 77.5665 20.389C80.0838 19.7856 81.5411 19.2341 83.2105 18.2108C87.0526 15.8482 89.0661 12.5148 89.5698 7.68557H76.6391V11.0715C76.6391 11.8851 76.6656 12.5935 76.7186 13.1713H73.168C73.2475 12.5148 73.3005 11.7011 73.3005 10.9662V7.16032C73.3005 6.05823 73.274 5.3758 73.1945 4.66743C74.1219 4.77211 74.5988 4.79836 76.0562 4.79836H81.2497L89.437 4.77211C91.3978 4.77211 91.3978 4.77211 92.0338 4.56213L93.5706 6.11073Z" fill="white"/>
  <path fill-rule="evenodd" clip-rule="evenodd" d="M105.155 5.96582C106.553 8.5989 107.054 9.76871 107.714 12.0824L104.785 13.0131C104.284 10.992 103.492 8.94461 102.384 6.76363L105.155 5.96582ZM114.679 7.24262C114.52 7.64122 114.467 7.7745 114.309 8.5989C113.544 12.2153 112.357 15.1406 110.669 17.4543C108.716 20.1402 106.526 21.8688 102.622 23.8633C101.936 22.6932 101.619 22.2943 100.511 21.2302C102.358 20.5125 103.44 19.9272 104.996 18.7839C108.083 16.5235 109.851 13.8109 110.985 9.55596C111.328 8.25287 111.46 7.3224 111.46 6.498L114.679 7.24262ZM99.5352 7.05616C100.643 9.10387 101.171 10.3804 102.12 13.3588L99.1395 14.3162C98.4532 11.6303 97.9258 10.2208 96.7383 7.88056L99.5352 7.05616Z" fill="white"/>
  <path fill-rule="evenodd" clip-rule="evenodd" d="M133.804 3.03135C133.804 3.9806 134.572 4.77138 135.525 4.77138C136.504 4.77138 137.272 3.9806 137.272 3.03135C137.272 2.0824 136.504 1.31798 135.525 1.31798C134.572 1.31798 133.804 2.0824 133.804 3.03135ZM130.919 3.11073C131.713 3.11073 132.03 3.08437 132.48 3.05771C132.507 1.34434 133.83 0 135.525 0C137.219 0 138.596 1.3707 138.596 3.03135C138.596 4.71836 137.219 6.08936 135.525 6.08936C135.366 6.08936 135.207 6.063 135.022 6.03633C132.877 14.6559 128.192 20.0333 119.826 23.5124C119.138 22.142 118.688 21.5354 117.496 20.3756C124.83 18.1087 129.621 13.2061 131.315 6.19449H118.714C116.755 6.19449 116.252 6.22085 115.379 6.35265V2.92591C116.332 3.08437 116.967 3.11073 118.767 3.11073H130.919Z" fill="white"/>
  <path fill-rule="evenodd" clip-rule="evenodd" d="M23.918 22.1087H27.4357V2.10559H23.918V22.1087Z" fill="white"/>
  <path fill-rule="evenodd" clip-rule="evenodd" d="M44.9907 22.1087L40.4966 15.3854H35.9752V22.1087H32.3633V2.10559H41.5249C46.2518 2.10559 49.1595 4.85847 49.1595 8.74655C49.1595 12.0376 47.1327 14.0239 44.2551 14.7902L49.2482 22.1087H44.9907ZM41.2313 5.28371H35.9752V12.2927H41.2595C43.8444 12.2927 45.4885 10.7876 45.4885 8.74502C45.4885 6.56004 43.9034 5.28371 41.2313 5.28371Z" fill="white"/>
  <path fill-rule="evenodd" clip-rule="evenodd" d="M0 22.1087H3.78527C3.78527 22.1087 6.5041 16.3386 14.4802 17.0038L16.6353 22.1087H20.4027L12.0627 2.10559H8.542L0 22.1087ZM10.3452 6.27642L13.2629 13.8573C13.2629 13.8573 10.0568 13.7376 6.85105 15.2714L10.3452 6.27642Z" fill="white"/>
  <path fill-rule="evenodd" clip-rule="evenodd" d="M85.9459 37.1418C82.0325 36.2313 81.026 35.3634 81.026 33.7983C81.026 32.4603 82.0914 31.3987 84.1944 31.3987C86.0642 31.3987 88.1358 32.3034 89.9763 33.6411L91.9037 30.9942C89.83 29.3718 87.0747 28.4254 84.0955 28.4254C80.0358 28.4254 77.4337 30.639 77.4337 34.1112C77.4337 37.8115 79.9585 39.2479 84.3099 40.2727C88.1072 41.1268 88.9242 41.8951 88.9242 43.3462C88.9242 44.8834 87.9029 46.0284 85.6843 46.0284C83.1432 46.0284 80.8054 44.9404 78.8491 43.2898L76.6875 45.7939C79.1408 47.9287 82.4716 49.1304 85.5956 49.1304C89.8891 49.1304 92.5171 46.762 92.5171 43.0054C92.5171 42.5577 92.4762 42.143 92.3955 41.7584C91.8751 39.2788 89.688 38.0294 85.9459 37.1418Z" fill="white"/>
  <path fill-rule="evenodd" clip-rule="evenodd" d="M120.042 28.7764L115.146 43.502L110.104 28.777H107.055L102.013 43.502L97.1175 28.7764H93.2188L100.371 48.7795H103.479L108.521 34.5075L113.563 48.7795H116.67L123.823 28.7764H120.042Z" fill="white"/>
  <path fill-rule="evenodd" clip-rule="evenodd" d="M150.872 38.9666H145.735V31.9544H150.872C153.58 31.9544 155.317 32.613 155.317 35.3667C155.317 37.9516 153.61 38.9666 150.872 38.9666ZM151.166 28.7764H142.113V48.7795H145.735V42.1161H150.754C155.606 42.1161 158.998 39.7035 158.998 35.2206C158.998 31.1631 155.965 28.7764 151.166 28.7764Z" fill="white"/>
  <path fill-rule="evenodd" clip-rule="evenodd" d="M127.445 40.5279L130.362 32.9472L133.856 41.9421C130.651 40.4084 127.445 40.5279 127.445 40.5279ZM128.644 28.7764L120.305 48.7795H124.072L126.227 43.6747C134.203 43.0096 136.922 48.7795 136.922 48.7795H140.707L132.165 28.7764H128.644Z" fill="white"/>
</svg>
